<?xml version="1.0" encoding="UTF-8" standalone="no"?>
<!-- Created with Inkscape (http://www.inkscape.org/) -->

<svg
   xmlns:dc="http://purl.org/dc/elements/1.1/"
   xmlns:cc="http://creativecommons.org/ns#"
   xmlns:rdf="http://www.w3.org/1999/02/22-rdf-syntax-ns#"
   xmlns:svg="http://www.w3.org/2000/svg"
   xmlns="http://www.w3.org/2000/svg"
   xmlns:xlink="http://www.w3.org/1999/xlink"
   xmlns:sodipodi="http://sodipodi.sourceforge.net/DTD/sodipodi-0.dtd"
   xmlns:inkscape="http://www.inkscape.org/namespaces/inkscape"
   width="203.71875"
   height="174.5"
   id="svg2"
   version="1.1"
   inkscape:version="0.48.4 r9939"
   sodipodi:docname="cinema.svg">
  <defs
     id="defs4">
    <linearGradient
       inkscape:collect="always"
       id="linearGradient3680">
      <stop
         style="stop-color:#babdb6;stop-opacity:1"
         offset="0"
         id="stop3682" />
      <stop
         id="stop3692"
         offset="0.20424372"
         style="stop-color:#dbded8;stop-opacity:1;" />
      <stop
         id="stop3688"
         offset="0.44099137"
         style="stop-color:#d3d7cf;stop-opacity:1" />
      <stop
         style="stop-color:#eeeeec;stop-opacity:1"
         offset="0.69693315"
         id="stop3690" />
      <stop
         style="stop-color:#babdb6;stop-opacity:1"
         offset="1"
         id="stop3684" />
    </linearGradient>
    <linearGradient
       inkscape:collect="always"
       id="linearGradient3658">
      <stop
         style="stop-color:#888a85;stop-opacity:1;"
         offset="0"
         id="stop3660" />
      <stop
         style="stop-color:#eeeeec;stop-opacity:1"
         offset="1"
         id="stop3662" />
    </linearGradient>
    <inkscape:perspective
       sodipodi:type="inkscape:persp3d"
       inkscape:vp_x="0 : 526.18109 : 1"
       inkscape:vp_y="0 : 1000 : 0"
       inkscape:vp_z="744.09448 : 526.18109 : 1"
       inkscape:persp3d-origin="372.04724 : 350.78739 : 1"
       id="perspective10" />
    <linearGradient
       inkscape:collect="always"
       xlink:href="#linearGradient3658"
       id="linearGradient3664"
       x1="483.3075"
       y1="16.779177"
       x2="483.3075"
       y2="66.326904"
       gradientUnits="userSpaceOnUse" />
    <linearGradient
       inkscape:collect="always"
       xlink:href="#linearGradient3658"
       id="linearGradient3668"
       gradientUnits="userSpaceOnUse"
       x1="483.3075"
       y1="16.779177"
       x2="483.3075"
       y2="66.326904" />
    <linearGradient
       inkscape:collect="always"
       xlink:href="#linearGradient3680"
       id="linearGradient3686"
       x1="487.19656"
       y1="24.228922"
       x2="499.59357"
       y2="87.50882"
       gradientUnits="userSpaceOnUse"
       gradientTransform="translate(-88.388348,30.405592)" />
  </defs>
  <sodipodi:namedview
     id="base"
     pagecolor="#ffffff"
     bordercolor="#666666"
     borderopacity="1.0"
     inkscape:pageopacity="0.0"
     inkscape:pageshadow="2"
     inkscape:zoom="2"
     inkscape:cx="89.81374"
     inkscape:cy="115.22498"
     inkscape:document-units="px"
     inkscape:current-layer="layer1"
     showgrid="false"
     inkscape:window-width="1855"
     inkscape:window-height="1056"
     inkscape:window-x="1431"
     inkscape:window-y="24"
     inkscape:window-maximized="1"
     showguides="true"
     inkscape:guide-bbox="true"
     fit-margin-top="1"
     fit-margin-left="1"
     fit-margin-right="1"
     fit-margin-bottom="1" />
  <metadata
     id="metadata7">
    <rdf:RDF>
      <cc:Work
         rdf:about="">
        <dc:format>image/svg+xml</dc:format>
        <dc:type
           rdf:resource="http://purl.org/dc/dcmitype/StillImage" />
        <dc:title></dc:title>
      </cc:Work>
    </rdf:RDF>
  </metadata>
  <g
     inkscape:label="Capa 1"
     inkscape:groupmode="layer"
     id="layer1"
     transform="translate(-128.375,-150.8125)">
    <g
       id="g3008"
       style="fill:#ffffff;fill-opacity:1">
      <path
         id="path2829"
         transform="translate(129.375,151.8125)"
         d="M 127.21875,0 C 106.61926,0 89.5286,14.99075 86.25,34.65625 L 81.15625,35.625 C 75.1667,25.5067 64.14511,18.71875 51.53125,18.71875 32.52473,18.71875 17.125,34.11848 17.125,53.125 c 0,16.16142 11.13593,29.70893 26.15625,33.40625 l 0,3.84375 -6.96875,0 -0.03125,-0.3125 -8.25,-3.0625 -5.78125,0 9.125,19 3.375,-0.90625 1.875,-3.0625 6.65625,0 0,42.96875 11.03125,0 -1.28125,9.5625 -26.25,5 L 21.125,156.625 0,160.65625 1.46875,172.5 22.6875,168.46875 27.59375,163.53125 56.125,157.375 58.15625,145 l 104.71875,0 0,-71.4375 -9.1875,0 C 162.9044,65.942 168.78125,54.42461 168.78125,41.53125 168.78125,18.58555 150.16445,0 127.21875,0 z M 126.625,19.5625 c 11.59798,0 21,9.40202 21,21 0,11.59798 -9.40202,21 -21,21 -11.59798,0 -21,-9.40202 -21,-21 0,-11.59798 9.40202,-21 21,-21 z m -2,6.1875 c -1.8794,0 -3.40625,1.52685 -3.40625,3.40625 0,1.8794 1.52685,3.40625 3.40625,3.40625 1.8794,0 3.40625,-1.52685 3.40625,-3.40625 0,-1.8794 -1.52685,-3.40625 -3.40625,-3.40625 z m 10.5,6.375 c -1.8794,0 -3.40625,1.5581 -3.40625,3.4375 0,1.87939 1.52685,3.40625 3.40625,3.40625 1.8794,0 3.40625,-1.52686 3.40625,-3.40625 0,-1.8794 -1.52685,-3.4375 -3.40625,-3.4375 z m -83.5,2.4375 c 9.38884,0 17,7.61116 17,17 0,9.38884 -7.61116,17 -17,17 -9.38884,0 -17,-7.61116 -17,-17 0,-9.38884 7.61116,-17 17,-17 z m 64.96875,0.25 c -1.8794,0 -3.4375,1.52685 -3.4375,3.40625 0,1.87939 1.5581,3.40625 3.4375,3.40625 1.8794,0 3.375,-1.52686 3.375,-3.40625 0,-1.8794 -1.4956,-3.40625 -3.375,-3.40625 z M 50,39.59375 c -1.52141,0 -2.75,1.19733 -2.75,2.71875 0,1.52142 1.22859,2.78125 2.75,2.78125 1.52142,0 2.75,-1.25983 2.75,-2.78125 0,-1.52142 -1.22858,-2.71875 -2.75,-2.71875 z m 83.90625,4.53125 c -1.8794,0 -3.40625,1.4956 -3.40625,3.375 0,1.8794 1.52685,3.40625 3.40625,3.40625 1.8794,0 3.40625,-1.52685 3.40625,-3.40625 0,-1.8794 -1.52685,-3.375 -3.40625,-3.375 z m -75.375,0.625 c -1.52142,0 -2.78125,1.22858 -2.78125,2.75 0,1.52141 1.25983,2.75 2.78125,2.75 1.52142,0 2.75,-1.22859 2.75,-2.75 0,-1.52142 -1.22858,-2.75 -2.75,-2.75 z m 62.78125,1.4375 c -1.8794,0 -3.40625,1.4956 -3.40625,3.375 0,1.87939 1.52685,3.40625 3.40625,3.40625 1.8794,0 3.40625,-1.52686 3.40625,-3.40625 0,-1.8794 -1.52685,-3.375 -3.40625,-3.375 z M 43.5,46.90625 c -1.52141,0 -2.78125,1.25983 -2.78125,2.78125 0,1.52141 1.25984,2.75 2.78125,2.75 1.52142,0 2.75,-1.22859 2.75,-2.75 0,-1.52142 -1.22858,-2.78125 -2.75,-2.78125 z m 14,7.53125 c -1.52142,0 -2.75,1.22858 -2.75,2.75 0,1.52142 1.22858,2.75 2.75,2.75 1.52142,0 2.78125,-1.22858 2.78125,-2.75 0,-1.52142 -1.25983,-2.75 -2.78125,-2.75 z m -10.15625,1.65625 c -1.52142,0 -2.78125,1.22858 -2.78125,2.75 0,1.52141 1.25983,2.78125 2.78125,2.78125 1.52142,0 2.75,-1.25984 2.75,-2.78125 0,-1.52142 -1.22858,-2.75 -2.75,-2.75 z m 43.78125,6 c 2.49668,4.37892 5.7609,8.27393 9.625,11.46875 l -21.53125,0 c 2.25423,-3.04929 4.0035,-6.4842 5.15625,-10.1875 l 6.75,-1.28125 z m 59.75,68.46875 c 2.07107,0 3.75,1.67893 3.75,3.75 0,2.07107 -1.67893,3.75 -3.75,3.75 -2.07107,0 -3.75,-1.67893 -3.75,-3.75 0,-2.07107 1.67893,-3.75 3.75,-3.75 z"
         style="fill:#ffffff;fill-opacity:1;stroke:none"
         inkscape:connector-curvature="0" />
      <path
         id="rect3789"
         d="M 331.09375,220.96875 310,233.75 l -16.5,0 0,31.84375 16.5,0 21.09375,12.78125 0,-57.40625 z"
         style="fill:#ffffff;fill-opacity:1;stroke:none"
         inkscape:connector-curvature="0" />
    </g>
  </g>
</svg>
