<?xml version="1.0" encoding="UTF-8" standalone="no"?>
<svg
   xmlns:dc="http://purl.org/dc/elements/1.1/"
   xmlns:cc="http://creativecommons.org/ns#"
   xmlns:rdf="http://www.w3.org/1999/02/22-rdf-syntax-ns#"
   xmlns:svg="http://www.w3.org/2000/svg"
   xmlns="http://www.w3.org/2000/svg"
   xmlns:xlink="http://www.w3.org/1999/xlink"
   xmlns:sodipodi="http://sodipodi.sourceforge.net/DTD/sodipodi-0.dtd"
   xmlns:inkscape="http://www.inkscape.org/namespaces/inkscape"
   width="100"
   height="86"
   id="svg2"
   version="1.1"
   inkscape:version="0.48.4 r9939"
   sodipodi:docname="15adffc7.camera.svg">
  <metadata
     id="metadata36">
    <rdf:RDF>
      <cc:Work
         rdf:about="">
        <dc:format>image/svg+xml</dc:format>
        <dc:type
           rdf:resource="http://purl.org/dc/dcmitype/StillImage" />
      </cc:Work>
    </rdf:RDF>
  </metadata>
  <sodipodi:namedview
     pagecolor="#ffffff"
     bordercolor="#666666"
     borderopacity="1"
     objecttolerance="10"
     gridtolerance="10"
     guidetolerance="10"
     inkscape:pageopacity="0"
     inkscape:pageshadow="2"
     inkscape:window-width="1855"
     inkscape:window-height="1056"
     id="namedview34"
     showgrid="false"
     inkscape:zoom="5.4097421"
     inkscape:cx="44.472176"
     inkscape:cy="46.850262"
     inkscape:window-x="1431"
     inkscape:window-y="24"
     inkscape:window-maximized="1"
     inkscape:current-layer="svg2" />
  <defs
     id="defs4">
    <linearGradient
       id="b">
      <stop
         offset="0"
         stop-color="#babdb6"
         id="stop7" />
      <stop
         offset=".204"
         stop-color="#dbded8"
         id="stop9" />
      <stop
         offset=".441"
         stop-color="#d3d7cf"
         id="stop11" />
      <stop
         offset=".697"
         stop-color="#eeeeec"
         id="stop13" />
      <stop
         offset="1"
         stop-color="#babdb6"
         id="stop15" />
    </linearGradient>
    <linearGradient
       id="a">
      <stop
         offset="0"
         stop-color="#888a85"
         id="stop18" />
      <stop
         offset="1"
         stop-color="#eeeeec"
         id="stop20" />
    </linearGradient>
    <linearGradient
       xlink:href="#a"
       x1="483.30801"
       y1="16.778999"
       x2="483.30801"
       y2="66.327003"
       gradientUnits="userSpaceOnUse"
       id="linearGradient22" />
    <linearGradient
       xlink:href="#a"
       gradientUnits="userSpaceOnUse"
       x1="483.30801"
       y1="16.778999"
       x2="483.30801"
       y2="66.327003"
       id="linearGradient24" />
    <linearGradient
       xlink:href="#b"
       x1="487.19699"
       y1="24.229"
       x2="499.59399"
       y2="87.509003"
       gradientUnits="userSpaceOnUse"
       gradientTransform="translate(-88.388,30.406)"
       id="linearGradient26" />
  </defs>
  <g
     transform="matrix(0.4782969,0,0,0.4782969,-59.834572,-70.566057)"
     id="g28"
     style="fill:#ffffff">
    <path
       d="m 256.594,151.813 c -20.599,0 -37.69,14.991 -40.969,34.656 l -5.094,0.969 c -5.99,-10.118 -17.011,-16.906 -29.625,-16.906 -19.007,0 -34.406,15.4 -34.406,34.406 0,16.161 11.136,29.709 26.156,33.406 v 3.844 h -6.969 l -0.031,-0.313 -8.25,-3.063 h -5.781 l 9.125,19 3.375,-0.906 1.875,-3.063 h 6.656 v 42.969 h 11.031 l -1.281,9.563 -26.25,5 -5.656,-2.938 -21.125,4.031 1.469,11.844 21.219,-4.031 4.906,-4.938 28.531,-6.156 2.031,-12.375 H 292.25 v -71.438 h -9.188 c 9.217,-7.621 15.094,-19.138 15.094,-32.031 0,-22.946 -18.617,-41.531 -41.563,-41.531 z M 256,171.376 c 11.598,0 21,9.402 21,21 0,11.598 -9.402,21 -21,21 -11.598,0 -21,-9.402 -21,-21 0,-11.598 9.402,-21 21,-21 z m -2,6.188 c -1.879,0 -3.406,1.527 -3.406,3.406 0,1.879 1.527,3.406 3.406,3.406 1.879,0 3.406,-1.527 3.406,-3.406 0,-1.879 -1.527,-3.406 -3.406,-3.406 z m 10.5,6.375 c -1.879,0 -3.406,1.558 -3.406,3.438 0,1.879 1.527,3.406 3.406,3.406 1.879,0 3.406,-1.527 3.406,-3.406 0,-1.879 -1.527,-3.438 -3.406,-3.438 z m -83.5,2.438 c 9.389,0 17,7.611 17,17 0,9.389 -7.611,17 -17,17 -9.389,0 -17,-7.611 -17,-17 0,-9.389 7.611,-17 17,-17 z m 64.969,0.25 c -1.879,0 -3.438,1.527 -3.438,3.406 0,1.879 1.558,3.406 3.438,3.406 1.879,0 3.375,-1.527 3.375,-3.406 0,-1.879 -1.496,-3.406 -3.375,-3.406 z m -66.594,4.781 c -1.521,0 -2.75,1.197 -2.75,2.719 0,1.521 1.229,2.781 2.75,2.781 1.521,0 2.75,-1.26 2.75,-2.781 0,-1.521 -1.229,-2.719 -2.75,-2.719 z m 83.906,4.531 c -1.879,0 -3.406,1.496 -3.406,3.375 0,1.879 1.527,3.406 3.406,3.406 1.879,0 3.406,-1.527 3.406,-3.406 0,-1.879 -1.527,-3.375 -3.406,-3.375 z m -75.375,0.625 c -1.521,0 -2.781,1.229 -2.781,2.75 0,1.521 1.26,2.75 2.781,2.75 1.521,0 2.75,-1.229 2.75,-2.75 0,-1.521 -1.229,-2.75 -2.75,-2.75 z m 62.781,1.438 c -1.879,0 -3.406,1.496 -3.406,3.375 0,1.879 1.527,3.406 3.406,3.406 1.879,0 3.406,-1.527 3.406,-3.406 0,-1.879 -1.527,-3.375 -3.406,-3.375 z m -77.813,0.719 c -1.521,0 -2.781,1.26 -2.781,2.781 0,1.521 1.26,2.75 2.781,2.75 1.521,0 2.75,-1.229 2.75,-2.75 0,-1.521 -1.229,-2.781 -2.75,-2.781 z m 14,7.531 c -1.521,0 -2.75,1.229 -2.75,2.75 0,1.521 1.229,2.75 2.75,2.75 1.521,0 2.781,-1.229 2.781,-2.75 0,-1.521 -1.26,-2.75 -2.781,-2.75 z m -10.156,1.656 c -1.521,0 -2.781,1.229 -2.781,2.75 0,1.521 1.26,2.781 2.781,2.781 1.521,0 2.75,-1.26 2.75,-2.781 0,-1.521 -1.229,-2.75 -2.75,-2.75 z m 43.781,6 c 2.497,4.379 5.761,8.274 9.625,11.469 h -21.531 c 2.254,-3.049 4.003,-6.484 5.156,-10.188 l 6.75,-1.281 z m 59.75,68.469 c 2.071,0 3.75,1.679 3.75,3.75 0,2.071 -1.679,3.75 -3.75,3.75 -2.071,0 -3.75,-1.679 -3.75,-3.75 0,-2.071 1.679,-3.75 3.75,-3.75 z"
       id="path30"
       style="fill:#ffffff"
       inkscape:connector-curvature="0" />
    <path
       d="M 331.094,220.969 310,233.75 h -16.5 v 31.844 H 310 l 21.094,12.781 v -57.406 z"
       id="path32"
       style="fill:#ffffff"
       inkscape:connector-curvature="0" />
  </g>
</svg>
